# AST/ASF file generated using VICON BodyLanguage
# -----------------------------------------------
:version 1.10
:name VICON
:units
  mass 1.0
  length 0.45
  angle deg
:documentation
   .ast/.asf automatically generated from VICON data using
   VICON BodyBuilder and BodyLanguage model FoxedUp or BRILLIANT.MOD
:root
   order TX TY TZ RX RY RZ
   axis XYZ
   position 0 0 0  
   orientation 0 0 0 
:bonedata
  begin
     id 1 
     name lhipjoint
     direction 0.624716 -0.669793 0.401383 
     length 2.38238 
     axis 0 0 0  XYZ
  end
  begin
     id 2 
     name lfemur
     direction 0.34202 -0.939693 0  
     length 6.4574  
     axis 0 0 20  XYZ
    dof rx ry rz
    limits (-160.0 20.0)
           (-70.0 70.0)
           (-60.0 70.0)
  end
  begin
     id 3 
     name ltibia
     direction 0.34202 -0.939693 0   
     length 7.68739   
     axis 0 0 20   XYZ
    dof rx
    limits (-10.0 170.0)
  end
  begin
     id 4 
     name lfoot
     direction 0.0681309 -0.187188 0.979959   
     length 2.46615   
     axis -90 7.62852e-016 20   XYZ
    dof rx rz
    limits (-45.0 90.0)
           (-70.0 20.0)
  end
  begin
     id 5 
     name ltoes
     direction 1.53566e-011 -4.21819e-011 1   
     length 1.2376   
     axis -90 7.62852e-016 20   XYZ
    dof rx
    limits (-90.0 20.0)
  end
  begin
     id 6 
     name rhipjoint
     direction -0.644473 -0.655875 0.393043   
     length 2.43293  
     axis 0 0 0  XYZ 
  end
  begin
     id 7 
     name rfemur
     direction -0.34202 -0.939693 0   
     length 6.7025   
     axis 0 0 -20   XYZ
    dof rx ry rz
    limits (-160.0 20.0)
           (-70.0 70.0)
           (-70.0 60.0)
  end
  begin
     id 8 
     name rtibia
     direction -0.34202 -0.939693 0   
     length 7.80547   
     axis 0 0 -20   XYZ
    dof rx
    limits (-10.0 170.0)
 end
 begin
     id 9 
     name rfoot
     direction -0.0756734 -0.207911 0.975216   
     length 2.40315  
     axis -90 -7.62852e-016 -20   XYZ
    dof rx rz
    limits (-45.0 90.0)
           (-20.0 70.0)
  end
  begin
     id 10 
     name rtoes
     direction -1.5353e-011 -4.21879e-011 1   
     length 1.20477   
     axis -90 -7.62852e-016 -20   XYZ
    dof rx
    limits (-90.0 20.0)
  end
  begin
     id 11 
     name lowerback
     direction 0.0160353 0.987463 -0.157037   
     length 2.18572   
     axis 0 0 0   XYZ
    dof rx ry rz
    limits (-20.0 45.0)
           (-30.0 30.0)
           (-30.0 30.0)
  end
  begin
     id 12 
     name upperback
     direction -0.00499661 0.999756 0.0215076   
     length 2.18016   
     axis 0 0 0   XYZ
    dof rx ry rz
    limits (-20.0 45.0)
           (-30.0 30.0)
           (-30.0 30.0)
  end
  begin
     id 13 
     name thorax
     direction -0.00921346 0.995333 0.0960619   
     length 2.24923   
     axis 0 0 0   XYZ
    dof rx ry rz
    limits (-20.0 45.0)
           (-30.0 30.0)
           (-30.0 30.0)
  end
  begin
     id 14 
     name lowerneck
     direction 0.0274184 0.991181 0.12965   
     length 1.70911   
     axis 0 0 0   XYZ
    dof rx ry rz
    limits (-20.0 45.0)
           (-30.0 30.0)
           (-30.0 30.0)
  end
  begin
     id 15 
     name upperneck
     direction 0.0015627 0.999959 -0.00893559   
     length 1.69312   
     axis 0 0 0   XYZ
    dof rx ry rz
    limits (-20.0 45.0)
           (-30.0 30.0)
           (-30.0 30.0)
  end
  begin
     id 16
     name head
     direction -0.00230242 0.999856 -0.0168327  
     length 1.80241  
     axis 0 0 0   XYZ
    dof rx ry rz
    limits (-20.0 45.0)
           (-30.0 30.0)
           (-30.0 30.0)
  end
  begin
     id 17 
     name lclavicle
     direction 0.955523 0.290741 -0.0494489  
     length 3.84275  
     axis 0 0 0   XYZ
    dof ry rz
    limits (-20.0 10.0)
           (0.0 20.0)
  end
  begin
     id 18 
     name lhumerus
     direction 1 -4.48967e-011 -3.18382e-028   
     length 5.17714   
     axis 180 -30 -90   XYZ
    dof rx ry rz
    limits (-60.0 90.0)
           (-90.0 90.0)
           (-90.0 90.0)
  end
  begin
     id 19
     name lradius
     direction 1 -4.48968e-011 -2.22911e-027   
     length 3.43679   
     axis 180 -30 -90   XYZ
    dof rx
    limits (-10.0 170.0)
  end
  begin
     id 20
     name lwrist
     direction 1 -4.48951e-011 -6.32245e-027   
     length 1.7184   
     axis 3.57107e-015 90 90   XYZ
    dof ry
    limits (-180.0 0.0)
 end
  begin
     id 21 
     name lhand
     direction 1 -4.48924e-011 -1.26431e-026   
     length 0.573117   
     axis 8.06912e-015 90 90   XYZ
    dof rx rz
    limits (-90.0 90.0)
           (-45.0 45.0)
  end
  begin
     id 22 
     name lfingers
     direction 1 -4.49001e-011 -2.52965e-026   
     length 0.462062   
     axis 1.61381e-014 90 90   XYZ
    dof rx
    limits (0.0 90.0)
  end
  begin
     id 23
     name lthumb
     direction 0.707107 -6.35008e-011 0.707107   
     length 0.663431   
     axis -90 45 -1.62303e-014   XYZ
    dof rx rz
    limits (-45.0 45.0)
           (-45.0 45.0)
  end
  begin
     id 24 
     name rclavicle
     direction -0.963917 0.256881 -0.0698287   
     length 3.73057  
     axis 0 0 0   XYZ 
    dof ry rz
    limits (-10.0 20.0)
           (-20.0 0.0)
  end
  begin
     id 25 
     name rhumerus
     direction -1 -4.48962e-011 -2.73982e-027  
     length 5.23908   
     axis 180 30 90   XYZ
    dof rx ry rz
    limits (-90.0 60.0)
           (-90.0 90.0)
           (-90.0 90.0)
  end
  begin
     id 26 
     name rradius
     direction -1 -4.48968e-011 -4.33218e-027   
     length 3.46485   
     axis 180 30 90   XYZ
    dof rx
    limits (-10.0 170.0)
  end
  begin
     id 27 
     name rwrist
     direction -1 -4.48989e-011 -6.32372e-027   
     length 1.73243   
     axis 3.57107e-015 -90 -90   XYZ
    dof ry
    limits (-180.0 0.0)
  end
  begin
     id 28
     name rhand
     direction -1 -4.48948e-011 -1.26448e-026   
     length 0.608752   
     axis 8.06912e-015 -90 -90   XYZ
    dof rx rz
    limits (-90.0 90.0)
           (-45.0 45.0)
  end
  begin
     id 29
     name rfingers
     direction -1 -4.48962e-011 -2.52913e-026   
     length 0.490792   
     axis 1.61381e-014 -90 -90   XYZ
    dof rx
    limits (0.0 90.0)
  end
  begin
     id 30
     name rthumb
     direction -0.707107 -6.34878e-011 0.707107   
     length 0.704682   
     axis -90 -45 1.62303e-014   XYZ
    dof rx rz
    limits (-45.0 45.0)
           (-45.0 45.0)
  end
:hierarchy
  begin
    root lhipjoint rhipjoint lowerback
    lhipjoint lfemur
    lfemur ltibia
    ltibia lfoot
    lfoot ltoes
    rhipjoint rfemur
    rfemur rtibia
    rtibia rfoot
    rfoot rtoes
    lowerback upperback
    upperback thorax
    thorax lowerneck lclavicle rclavicle
    lowerneck upperneck
    upperneck head
    lclavicle lhumerus
    lhumerus lradius
    lradius lwrist
    lwrist lhand lthumb
    lhand lfingers
    rclavicle rhumerus
    rhumerus rradius
    rradius rwrist
    rwrist rhand rthumb
    rhand rfingers
  end

#!OML:ASF G:\JayActor3\Patient Classification 1\Patient 1\Session 6\male.ASF
:FULLY-SPECIFIED
:DEGREES
184
root 46.2874 15.9472 14.8287 175.844 -49.1231 -175.993
lowerback 3.89125 -2.00536 -1.92025
upperback -5.22222 -2.84341 1.83233
thorax -7.46305 -1.2872 3.29616
lowerneck -4.31076 1.70105 4.64941
upperneck -4.07161 1.86857 -4.62326
head -0.444536 0.827575 -2.23135
rclavicle 1.0271e-013 1.69961e-014
rhumerus -46.3676 18.0245 -79.2856
rradius 39.5991
rwrist -6.36769
rhand -12.978 -4.62347
rfingers 7.12502
rthumb 13.1144 -34.1911
lclavicle 1.0271e-013 1.69961e-014
lhumerus -45.8745 -28.2464 89.0505
lradius 37.5108
lwrist 27.9916
lhand -12.4174 8.59485
lfingers 7.12502
lthumb 13.6548 38.1269
rfemur -9.08771 0.595124 19.2369
rtibia 35.8845
rfoot -25.8759 -10.5568
rtoes 5.32921
lfemur -2.2992 9.88104 -15.6822
ltibia 24.9663
lfoot -20.2962 7.66788
ltoes -1.03887
185
root 46.2785 15.9463 14.8387 175.91 -49.0748 -176.049
lowerback 3.89006 -2.00427 -1.98508
upperback -5.23893 -2.84871 1.81119
thorax -7.4782 -1.28653 3.31138
lowerneck -4.40939 1.73963 4.63965
upperneck -4.08485 1.91357 -4.61687
head -0.429867 0.847885 -2.22607
rclavicle -2.29348e-014 1.0635e-014
rhumerus -46.0656 17.3604 -78.7596
rradius 38.9019
rwrist -6.00756
rhand -12.961 -4.53952
rfingers 7.12502
rthumb 13.1308 -34.1061
lclavicle -2.29348e-014 1.0635e-014
lhumerus -45.8683 -27.9139 88.9929
lradius 37.5298
lwrist 27.9452
lhand -12.4811 8.59209
lfingers 7.12502
lthumb 13.5934 38.1283
rfemur -9.14608 0.633883 19.1532
rtibia 35.9273
rfoot -25.8638 -10.602
rtoes 5.16834
lfemur -2.31856 10.1038 -15.7345
ltibia 24.9662
lfoot -20.2749 7.539
ltoes -1.25496
186
root 46.2695 15.9452 14.8488 175.982 -49.0119 -176.114
lowerback 3.88395 -2.00005 -2.04732
upperback -5.25383 -2.84989 1.78338
thorax -7.48922 -1.28424 3.3174
lowerneck -4.50492 1.78078 4.62587
upperneck -4.09126 1.96307 -4.59833
head -0.41356 0.870674 -2.21593
rclavicle -4.44159e-014 4.37326e-015
rhumerus -45.743 16.6576 -78.232
rradius 38.1777
rwrist -5.60887
rhand -12.9697 -4.4463
rfingers 7.12502
rthumb 13.1224 -34.0134
lclavicle -4.44159e-014 4.37326e-015
lhumerus -45.859 -27.5658 88.9259
lradius 37.5423
lwrist 27.9006
lhand -12.5662 8.58004
lfingers 7.12502
lthumb 13.5113 38.1217
rfemur -9.20458 0.696632 19.0656
rtibia 35.97
rfoot -25.8605 -10.6571
rtoes 5.00449
lfemur -2.33225 10.3372 -15.7937
ltibia 24.9627
lfoot -20.2544 7.42016
ltoes -1.49427
187
root 46.2604 15.944 14.8589 176.061 -48.9365 -176.19
lowerback 3.87003 -1.99358 -2.10873
upperback -5.26638 -2.84819 1.74867
thorax -7.49376 -1.28092 3.31492
lowerneck -4.58708 1.8216 4.61477
upperneck -4.1021 2.01268 -4.57739
head -0.400946 0.893691 -2.20562
rclavicle 3.06128e-014 2.01269e-014
rhumerus -45.4071 15.9318 -77.7174
rradius 37.4399
rwrist -5.18615
rhand -13.0054 -4.36415
rfingers 7.12502
rthumb 13.088 -33.9335
lclavicle 3.06128e-014 2.01269e-014
lhumerus -45.8502 -27.2109 88.8525
lradius 37.5512
lwrist 27.8646
lhand -12.6763 8.56601
lfingers 7.12502
lthumb 13.4052 38.1147
rfemur -9.26392 0.780195 18.974
rtibia 36.0126
rfoot -25.8696 -10.7127
rtoes 4.87159
lfemur -2.34135 10.5833 -15.8586
ltibia 24.9554
lfoot -20.2335 7.30703
ltoes -1.7572
188
root 46.2514 15.9424 14.869 176.144 -48.8547 -176.275
lowerback 3.85478 -1.98616 -2.17222
upperback -5.27623 -2.84558 1.70742
thorax -7.49489 -1.27726 3.30645
lowerneck -4.65621 1.85881 4.60974
upperneck -4.11862 2.05766 -4.55767
head -0.392497 0.9145 -2.19701
rclavicle -1.43187e-013 -3.37934e-014
rhumerus -45.0696 15.2004 -77.2229
rradius 36.7006
rwrist -4.74038
rhand -13.0901 -4.30165
rfingers 7.12502
rthumb 13.0064 -33.8762
lclavicle -1.43187e-013 -3.37934e-014
lhumerus -45.8412 -26.8611 88.7803
lradius 37.5511
lwrist 27.844
lhand -12.8042 8.54868
lfingers 7.12502
lthumb 13.2819 38.1055
rfemur -9.31976 0.877914 18.8783
rtibia 36.0553
rfoot -25.8869 -10.7738
rtoes 4.747
lfemur -2.34302 10.8564 -15.9236
ltibia 24.9428
lfoot -20.2065 7.17822
ltoes -2.04875
189
root 46.2424 15.9407 14.879 176.23 -48.7705 -176.369
lowerback 3.83807 -1.97829 -2.24018
upperback -5.28358 -2.84283 1.66097
thorax -7.49258 -1.27349 3.29482
lowerneck -4.70843 1.88899 4.61487
upperneck -4.14291 2.0931 -4.55149
head -0.389563 0.930625 -2.19504
rclavicle -5.95422e-014 3.37934e-015
rhumerus -44.7296 14.4654 -76.7481
rradius 35.9564
rwrist -4.26254
rhand -13.1963 -4.22463
rfingers 7.12502
rthumb 12.904 -33.8057
lclavicle -5.95422e-014 3.37934e-015
lhumerus -45.8354 -26.5274 88.7207
lradius 37.5397
lwrist 27.8437
lhand -12.9727 8.52395
lfingers 7.12502
lthumb 13.1195 38.0913
rfemur -9.37055 0.982896 18.7763
rtibia 36.0978
rfoot -25.9096 -10.8348
rtoes 4.63162
lfemur -2.33556 11.141 -15.992
ltibia 24.9242
lfoot -20.1769 7.03955
ltoes -2.35616
190
root 46.2335 15.939 14.8889 176.32 -48.6844 -176.472
lowerback 3.82493 -1.96765 -2.31592
upperback -5.29094 -2.83716 1.61118
thorax -7.4924 -1.26787 3.28395
lowerneck -4.74569 1.90849 4.63279
upperneck -4.17403 2.11386 -4.56186
head -0.391677 0.939434 -2.20126
rclavicle -5.18455e-014 -3.48122e-014
rhumerus -44.3982 13.7322 -76.2949
rradius 35.2182
rwrist -3.76152
rhand -13.3148 -4.13542
rfingers 7.12502
rthumb 12.7897 -33.7237
lclavicle -5.18455e-014 -3.48122e-014
lhumerus -45.8358 -26.2168 88.6818
lradius 37.5134
lwrist 27.8604
lhand -13.1583 8.49103
lfingers 7.12502
lthumb 12.9406 38.0698
rfemur -9.41783 1.09483 18.6704
rtibia 36.1395
rfoot -25.9333 -10.903
rtoes 4.504
lfemur -2.32131 11.4362 -16.0618
ltibia 24.9001
lfoot -20.1445 6.89021
ltoes -2.67344
191
root 46.225 15.9373 14.8986 176.41 -48.6011 -176.577
lowerback 3.81914 -1.95427 -2.39654
upperback -5.30058 -2.82865 1.55683
thorax -7.4992 -1.26053 3.27119
lowerneck -4.7757 1.92075 4.65195
upperneck -4.20261 2.12563 -4.56804
head -0.394701 0.943943 -2.20651
rclavicle -4.69629e-014 -8.24956e-015
rhumerus -44.0876 13.0164 -75.8828
rradius 34.4986
rwrist -3.2872
rhand -13.4895 -4.07537
rfingers 7.12502
rthumb 12.6213 -33.6741
lclavicle -4.69629e-014 -8.24956e-015
lhumerus -45.8464 -25.9489 88.6711
lradius 37.4691
lwrist 27.896
lhand -13.3485 8.46044
lfingers 7.12502
lthumb 12.7573 38.0507
rfemur -9.46148 1.2145 18.5649
rtibia 36.1786
rfoot -25.9635 -10.9775
rtoes 4.38758
lfemur -2.3035 11.745 -16.1284
ltibia 24.872
lfoot -20.1088 6.72203
ltoes -3.00022
192
root 46.2168 15.9359 14.9083 176.498 -48.5183 -176.679
lowerback 3.81855 -1.94027 -2.48058
upperback -5.31442 -2.81983 1.50496
thorax -7.51336 -1.25264 3.26336
lowerneck -4.79964 1.93084 4.65394
upperneck -4.22856 2.13613 -4.5584
head -0.398374 0.948222 -2.20348
rclavicle -6.77918e-014 -6.18717e-015
rhumerus -43.7975 12.332 -75.5075
rradius 33.8022
rwrist -2.83438
rhand -13.6924 -4.0411
rfingers 7.12502
rthumb 12.4257 -33.6518
lclavicle -6.77918e-014 -6.18717e-015
lhumerus -45.8612 -25.709 88.6893
lradius 37.3984
lwrist 27.9404
lhand -13.514 8.42593
lfingers 7.12502
lthumb 12.5977 38.0261
rfemur -9.50474 1.34216 18.4639
rtibia 36.2135
rfoot -25.9966 -11.0576
rtoes 4.27528
lfemur -2.28677 12.0456 -16.1932
ltibia 24.8431
lfoot -20.0764 6.55466
ltoes -3.3144
193
root 46.2088 15.9347 14.9179 176.581 -48.4339 -176.772
lowerback 3.82033 -1.92572 -2.56295
upperback -5.33221 -2.81025 1.45767
thorax -7.5331 -1.24426 3.2596
lowerneck -4.81191 1.93956 4.63595
upperneck -4.25521 2.14666 -4.53451
head -0.404651 0.953025 -2.19223
rclavicle 9.49073e-014 1.12935e-014
rhumerus -43.5293 11.6869 -75.1699
rradius 33.1353
rwrist -2.41127
rhand -13.9133 -4.039
rfingers 7.12502
rthumb 12.2127 -33.6625
lclavicle 9.49073e-014 1.12935e-014
lhumerus -45.8846 -25.4929 88.738
lradius 37.3035
lwrist 27.9857
lhand -13.6556 8.39561
lfingers 7.12502
lthumb 12.4611 38.0041
rfemur -9.54702 1.47867 18.3714
rtibia 36.2421
rfoot -26.0307 -11.1389
rtoes 4.18258
lfemur -2.27306 12.3345 -16.2531
ltibia 24.8166
lfoot -20.048 6.39534
ltoes -3.61874
